# xmcd
#
# Track frame offsets: 
#        150
#        12904
#        26799
#        40605
#        54408
#        66346
#        81871
#        94397
#        108671
#        122556
#        135775
#        148847
#        161020
#        174674
#        186319
#        199310
#        214540
#        226467
#
# Disc length: 3182 seconds
#
# Revision: 1
# Processed by: cddbd v1.5.2PL0 Copyright (c) Steve Scherf et al.
# Submitted via: ExactAudioCopy v0.99pb4
#
DISCID=010c6c12
DTITLE=Sarah Vaughan - Vocal Jazz
DYEAR=1900
DGENRE=Jazz
TTITLE0=What a Diference a Day Makes
TTITLE1=Once In a While
TTITLE2=What More Can a Woman Do
TTITLE3=You Go To My Head
TTITLE4=My Kinda Love
TTITLE5=Lover Man
TTITLE6=You're Not the Kind
TTITLE7=Don't Blame Me
TTITLE8=I Can Make You Love Me
TTITLE9=All Too Soon
TTITLE10=East Of the Sun (and West Of the Moon)
TTITLE11=We're Through
TTITLE12=It Might As Well Be Spring
TTITLE13=I'm Scared
TTITLE14=Body and Soul
TTITLE15=Time and Again
TTITLE16=Mean To Me
TTITLE17=Signing Off
EXTD=
EXTT0=
EXTT1=
EXTT2=
EXTT3=
EXTT4=
EXTT5=
EXTT6=
EXTT7=
EXTT8=
EXTT9=
EXTT10=
EXTT11=
EXTT12=
EXTT13=
EXTT14=
EXTT15=
EXTT16=
EXTT17=
PLAYORDER=
